<?xml version="1.0" encoding="utf-8"?>
<!-- Generator: Adobe Illustrator 22.0.1, SVG Export Plug-In . SVG Version: 6.00 Build 0)  -->
<svg version="1.2" baseProfile="tiny" id="Logo" xmlns="http://www.w3.org/2000/svg" xmlns:xlink="http://www.w3.org/1999/xlink"
	 x="0px" y="0px" viewBox="0 0 434 120" xml:space="preserve">
<g>
	<g>
		<rect x="106.2" y="4.4" fill="#929497" width="0.7" height="111.3"/>
	</g>
	<g>
		<g>
			<path fill="#579FD1" d="M147.3,46.6c6.3,0,9.4,3.7,9.4,3.7l-2.3,3.4c0,0-2.7-2.9-7-2.9c-5.1,0-8.7,3.8-8.7,8.9c0,5.1,3.7,9,8.9,9
				c4.7,0,7.7-3.4,7.7-3.4l1.9,3.5c0,0-3.5,4-10,4c-7.9,0-13.5-5.6-13.5-13.2C133.8,52.3,139.4,46.6,147.3,46.6z"/>
		</g>
		<g>
			<path fill="#579FD1" d="M162.7,37.3h4.9v4.9h-4.9V37.3z M162.8,47.2h4.8v25.1h-4.8V47.2z"/>
		</g>
		<g>
			<path fill="#579FD1" d="M175.2,47.2h4.7v4.4c0,1-0.1,1.9-0.1,1.9h0.1c1.1-3.7,4.1-6.6,7.9-6.6c0.6,0,1.2,0.1,1.2,0.1v4.8
				c0,0-0.6-0.1-1.4-0.1c-3.1,0-5.9,2.2-7.1,5.9c-0.4,1.4-0.6,3-0.6,4.5v10.3h-4.8L175.2,47.2L175.2,47.2z"/>
		</g>
		<g>
			<path fill="#579FD1" d="M193.8,47.2h4.7v4.4c0,1-0.1,1.9-0.1,1.9h0.1c1.1-3.7,4.1-6.6,7.9-6.6c0.6,0,1.2,0.1,1.2,0.1v4.8
				c0,0-0.6-0.1-1.4-0.1c-3.1,0-5.9,2.2-7.1,5.9c-0.4,1.4-0.6,3-0.6,4.5v10.3h-4.8L193.8,47.2L193.8,47.2z"/>
		</g>
		<g>
			<path fill="#579FD1" d="M212,47.2h4.8v15c0,3.5,0.7,6.3,4.7,6.3c5.1,0,8.1-4.5,8.1-9.5V47.2h4.8v25.1h-4.7V69
				c0-1,0.1-1.8,0.1-1.8h-0.1c-1,2.5-4.3,5.8-9.2,5.8c-5.7,0-8.6-3-8.6-9.6L212,47.2L212,47.2z"/>
		</g>
		<g>
			<path fill="#579FD1" d="M241.6,65.8c0,0,2.8,2.9,7.2,2.9c2.1,0,4.2-1.1,4.2-3.1c0-4.6-12.9-3.7-12.9-11.9c0-4.6,4.1-7.2,9.1-7.2
				c5.5,0,8.1,2.8,8.1,2.8l-1.9,3.6c0,0-2.2-2.2-6.2-2.2c-2.1,0-4.1,0.9-4.1,3.1c0,4.5,12.9,3.5,12.9,11.8c0,4.2-3.6,7.3-9.1,7.3
				c-6.2,0-9.5-3.7-9.5-3.7L241.6,65.8z"/>
		</g>
		<g>
			<path fill="#929497" d="M276.7,37.6h2.5v3.6h-2.5V37.6z M276.9,47.5h2.1v24.8h-2.1V47.5z"/>
		</g>
		<g>
			<path fill="#929497" d="M296.8,46.9c6.3,0,8.6,5.6,8.6,5.6h0.1c0,0-0.2-0.9-0.2-2V37.6h2.1v34.8h-2.1v-3.1c0-1.1,0.2-1.9,0.2-1.9
				h-0.1c0,0-2.1,5.6-9,5.6c-6.7,0-10.7-5.3-10.7-13C285.6,52,290.2,46.9,296.8,46.9z M296.5,70.9c4.6,0,8.8-3.2,8.8-11
				c0-5.5-2.8-10.9-8.6-10.9c-4.9,0-8.8,4-8.8,11C287.8,66.6,291.4,70.9,296.5,70.9z"/>
		</g>
		<g>
			<path fill="#929497" d="M325.6,46.9c6.8,0,10.1,5.3,10.1,11.3c0,0.5-0.1,1.3-0.1,1.3h-19.9c0,7.2,4.9,11.3,10.6,11.3
				c4.8,0,7.7-3.1,7.7-3.1l1.1,1.7c0,0-3.5,3.4-8.8,3.4c-7,0-12.8-5.1-12.8-13C313.6,51.6,319.3,46.9,325.6,46.9z M333.6,57.6
				c-0.2-6.1-3.9-8.8-8-8.8c-4.6,0-8.8,3-9.7,8.8H333.6z"/>
		</g>
		<g>
			<path fill="#929497" d="M342.8,47.5h2.1v4.4c0,1.1-0.2,2-0.2,2h0.1c0.8-2.3,4.3-7,10.5-7c6.5,0,8.2,3.8,8.2,9.7v15.7h-2.1v-15
				c0-4.3-0.5-8.4-6.1-8.4c-4.7,0-8.8,3.3-10,7.9c-0.3,1-0.4,2.2-0.4,3.4v12.1h-2.1L342.8,47.5L342.8,47.5z"/>
		</g>
		<g>
			<path fill="#929497" d="M371.9,49.5h-3.3v-1.9h3.3v-7.1h2.1v7.1h6.5v1.9H374v13.7c0,6.6,3.9,7.4,5.9,7.4c0.7,0,1.1-0.1,1.1-0.1
				v1.9c0,0-0.5,0.1-1.2,0.1c-2.6,0-7.9-0.9-7.9-9.2V49.5z"/>
		</g>
		<g>
			<path fill="#929497" d="M387,37.6h2.5v3.6H387V37.6z M387.2,47.5h2.1v24.8h-2.1V47.5z"/>
		</g>
		<g>
			<path fill="#929497" d="M398.8,49.5h-3.3v-1.9h3.3v-7.1h2.1v7.1h6.5v1.9h-6.5v13.7c0,6.6,3.9,7.4,5.9,7.4c0.7,0,1.1-0.1,1.1-0.1
				v1.9c0,0-0.5,0.1-1.2,0.1c-2.6,0-7.9-0.9-7.9-9.2V49.5z"/>
		</g>
		<g>
			<path fill="#929497" d="M410.9,79.6c0,0,1.4,1.2,3.1,1.2c2.4,0,3.9-2.1,4.9-4.5l1.8-4.1l-10.3-24.7h2.2l8.2,19.8
				c0.5,1.2,0.9,2.3,0.9,2.3h0.1c0,0,0.3-1.1,0.8-2.3l8.2-19.8h2.2l-12.8,30.6c-1.1,2.6-3.2,4.6-6.3,4.6c-2.4,0-4-1.4-4-1.4
				L410.9,79.6z"/>
		</g>
	</g>
	<g>
		<path fill="#579FD1" d="M74.4,73.6c-3.4,0-6.9,0-9.6,0l0,0c-4.4,0-5.8-0.6-8.7-4.2l0,0l-0.2-0.3c-1.8-2.2-3.3-2.5-5.2-0.2
			c-2.5,2.8-6.1,4.7-10.2,4.7c-7.5,0-13.6-6.1-13.6-13.6c0-7.5,6.1-13.6,13.6-13.6c4.1,0,7.7,1.8,10.2,4.7l0,0
			c1.9,2.3,3.5,2,5.4-0.4l0,0c2.9-3.6,4.3-4.1,8.7-4.1h9.3c3,0,2.4-2.4,1.4-4.5c-6.6-12.7-19.7-21.4-35-21.4C18.7,20.5,1,38.2,1,60
			c0,21.8,17.7,39.5,39.5,39.5c15.1,0,28.2-8.5,34.8-21C76.3,76.4,77.2,73.8,74.4,73.6z"/>
	</g>
</g>
</svg>
