<?xml version="1.0" encoding="utf-8"?>
<!-- Generator: Adobe Illustrator 22.0.1, SVG Export Plug-In . SVG Version: 6.00 Build 0)  -->
<svg version="1.2" baseProfile="tiny" id="Logo" xmlns="http://www.w3.org/2000/svg" xmlns:xlink="http://www.w3.org/1999/xlink"
	 x="0px" y="0px" viewBox="0 0 244 364" xml:space="preserve">
<g>
	<g>
		<rect x="1.9" y="189.4" fill="#929497" width="240.3" height="1.5"/>
	</g>
	<g>
		<g>
			<g>
				<path fill="#579FD1" d="M33.3,234.2c11.5,0,17.1,6.7,17.1,6.7l-4.1,6.1c0,0-4.9-5.2-12.6-5.2c-9.2,0-15.9,6.9-15.9,16.2
					c0,9.3,6.7,16.4,16.2,16.4c8.5,0,14.1-6.1,14.1-6.1l3.5,6.4c0,0-6.3,7.3-18.2,7.3c-14.4,0-24.5-10.2-24.5-23.9
					C8.8,244.5,18.9,234.2,33.3,234.2z"/>
			</g>
			<g>
				<path fill="#579FD1" d="M61.3,217.2h8.8v8.9h-8.8V217.2z M61.4,235.2h8.8v45.7h-8.8V235.2z"/>
			</g>
			<g>
				<path fill="#579FD1" d="M83.9,235.2h8.5v7.9c0,1.9-0.2,3.4-0.2,3.4h0.2c2.1-6.7,7.4-11.9,14.4-11.9c1.2,0,2.3,0.2,2.3,0.2v8.7
					c0,0-1.2-0.3-2.5-0.3c-5.6,0-10.7,4-12.8,10.7c-0.8,2.6-1.1,5.4-1.1,8.2v18.7h-8.8L83.9,235.2L83.9,235.2z"/>
			</g>
			<g>
				<path fill="#579FD1" d="M117.7,235.2h8.5v7.9c0,1.9-0.2,3.4-0.2,3.4h0.2c2.1-6.7,7.4-11.9,14.4-11.9c1.2,0,2.3,0.2,2.3,0.2v8.7
					c0,0-1.2-0.3-2.5-0.3c-5.6,0-10.7,4-12.8,10.7c-0.8,2.6-1.1,5.4-1.1,8.2v18.7h-8.8L117.7,235.2L117.7,235.2z"/>
			</g>
			<g>
				<path fill="#579FD1" d="M150.9,235.2h8.8v27.3c0,6.3,1.3,11.4,8.6,11.4c9.3,0,14.8-8.2,14.8-17.2v-21.4h8.8v45.7h-8.5v-6
					c0-1.9,0.2-3.3,0.2-3.3h-0.2c-1.9,4.5-7.9,10.5-16.8,10.5c-10.3,0-15.6-5.4-15.6-17.5L150.9,235.2L150.9,235.2z"/>
			</g>
			<g>
				<path fill="#579FD1" d="M204.7,269.1c0,0,5.1,5.3,13.1,5.3c3.8,0,7.6-2,7.6-5.7c0-8.4-23.5-6.7-23.5-21.6c0-8.3,7.4-13,16.5-13
					c10,0,14.7,5.1,14.7,5.1l-3.5,6.6c0,0-4.1-4.1-11.3-4.1c-3.8,0-7.5,1.6-7.5,5.6c0,8.2,23.5,6.4,23.5,21.4
					c0,7.6-6.5,13.3-16.5,13.3c-11.2,0-17.3-6.7-17.3-6.7L204.7,269.1z"/>
			</g>
		</g>
		<g>
			<g>
				<path fill="#929497" d="M12.2,297.8h3.5v5.2h-3.5V297.8z M12.5,311.9h3v35.3h-3V311.9z"/>
			</g>
			<g>
				<path fill="#929497" d="M40.6,311c8.9,0,12.2,8,12.2,8H53c0,0-0.3-1.3-0.3-2.9v-18.4h3v49.4h-3v-4.4c0-1.6,0.3-2.7,0.3-2.7h-0.1
					c0,0-3,8-12.8,8c-9.5,0-15.2-7.6-15.2-18.5C24.8,318.3,31.4,311,40.6,311z M40.2,345.1c6.5,0,12.6-4.6,12.6-15.7
					c0-7.8-4-15.5-12.3-15.5c-6.9,0-12.6,5.7-12.6,15.6C27.9,339.1,33,345.1,40.2,345.1z"/>
			</g>
			<g>
				<path fill="#929497" d="M81.7,311c9.6,0,14.4,7.6,14.4,16.1c0,0.8-0.1,1.9-0.1,1.9H67.7c0,10.2,6.9,16.1,15.1,16.1
					c6.8,0,10.9-4.4,10.9-4.4l1.6,2.5c0,0-4.9,4.9-12.6,4.9c-10,0-18.2-7.2-18.2-18.4C64.6,317.7,72.7,311,81.7,311z M93,326.3
					c-0.4-8.6-5.5-12.5-11.4-12.5c-6.5,0-12.5,4.2-13.8,12.5H93z"/>
			</g>
			<g>
				<path fill="#929497" d="M106.1,311.9h3v6.2c0,1.6-0.3,2.9-0.3,2.9h0.1c1.2-3.3,6.1-10,15-10c9.2,0,11.6,5.4,11.6,13.8v22.4h-3
					v-21.3c0-6.1-0.8-11.9-8.7-11.9c-6.6,0-12.5,4.7-14.3,11.2c-0.4,1.5-0.6,3.1-0.6,4.8v17.2h-3L106.1,311.9L106.1,311.9z"/>
			</g>
			<g>
				<path fill="#929497" d="M147.5,314.8h-4.7v-2.7h4.7v-10h3v10h9.2v2.7h-9.2v19.4c0,9.3,5.6,10.5,8.4,10.5c1,0,1.6-0.1,1.6-0.1
					v2.8c0,0-0.7,0.1-1.8,0.1c-3.7,0-11.2-1.3-11.2-13.1V314.8z"/>
			</g>
			<g>
				<path fill="#929497" d="M169,297.8h3.5v5.2H169V297.8z M169.2,311.9h3v35.3h-3V311.9z"/>
			</g>
			<g>
				<path fill="#929497" d="M185.8,314.8h-4.7v-2.7h4.7v-10h3v10h9.2v2.7h-9.2v19.4c0,9.3,5.6,10.5,8.4,10.5c1,0,1.6-0.1,1.6-0.1
					v2.8c0,0-0.7,0.1-1.8,0.1c-3.7,0-11.2-1.3-11.2-13.1V314.8z"/>
			</g>
			<g>
				<path fill="#929497" d="M202.8,357.5c0,0,2,1.7,4.4,1.7c3.4,0,5.5-3,6.9-6.4l2.5-5.9l-14.6-35.1h3.2l11.6,28.2
					c0.7,1.7,1.3,3.3,1.3,3.3h0.1c0,0,0.5-1.6,1.2-3.3l11.6-28.2h3.2l-18.1,43.6c-1.6,3.7-4.5,6.6-9,6.6c-3.4,0-5.7-2-5.7-2
					L202.8,357.5z"/>
			</g>
		</g>
	</g>
	<g>
		<path fill="#579FD1" d="M187.8,99.6c-6.3,0-12.6,0-17.7,0l0,0c-8.1,0-10.6-1.1-16-7.7l0,0.1l-0.3-0.5c-3.3-4.1-6.1-4.6-9.5-0.4
			c-4.6,5.2-11.3,8.6-18.8,8.6c-13.8,0-25-11.2-25-25c0-13.8,11.2-25,25-25c7.5,0,14.2,3.4,18.8,8.6l0-0.1c3.6,4.3,6.4,3.7,9.9-0.8
			l0,0c5.4-6.6,7.9-7.6,16-7.6h17.1c5.5,0,4.3-4.5,2.6-8.3C177.7,18,153.5,2,125.4,2C85.3,2,52.8,34.5,52.8,74.6
			c0,40.1,32.5,72.6,72.6,72.6c27.8,0,51.8-15.6,64-38.6C191.3,104.9,192.9,99.9,187.8,99.6z"/>
	</g>
</g>
</svg>
