<?xml version="1.0" encoding="utf-8"?>
<!-- Generator: Adobe Illustrator 22.0.1, SVG Export Plug-In . SVG Version: 6.00 Build 0)  -->
<svg version="1.2" baseProfile="tiny" id="Layer_1" xmlns="http://www.w3.org/2000/svg" xmlns:xlink="http://www.w3.org/1999/xlink"
	 x="0px" y="0px" viewBox="0 0 200 55" xml:space="preserve">
<g>
	<line fill="none" stroke="#929497" stroke-width="0.3169" stroke-miterlimit="10" x1="48.8" y1="1.7" x2="48.8" y2="53.3"/>
	<g>
		<path fill="#579FD1" d="M67.7,21.3c2.9,0,4.4,1.7,4.4,1.7L71,24.6c0,0-1.2-1.3-3.2-1.3c-2.3,0-4,1.7-4,4.1c0,2.4,1.7,4.2,4.1,4.2
			c2.2,0,3.6-1.6,3.6-1.6l0.9,1.6c0,0-1.6,1.9-4.6,1.9c-3.7,0-6.2-2.6-6.2-6.1C61.5,23.9,64.1,21.3,67.7,21.3z"/>
		<path fill="#579FD1" d="M74.9,17h2.3v2.3h-2.3V17z M74.9,21.6h2.2v11.6h-2.2V21.6z"/>
		<path fill="#579FD1" d="M80.6,21.6h2.2v2c0,0.5,0,0.9,0,0.9h0c0.5-1.7,1.9-3,3.7-3c0.3,0,0.6,0,0.6,0v2.2c0,0-0.3-0.1-0.6-0.1
			c-1.4,0-2.7,1-3.3,2.7c-0.2,0.7-0.3,1.4-0.3,2.1v4.8h-2.2L80.6,21.6L80.6,21.6z"/>
		<path fill="#579FD1" d="M89.2,21.6h2.2v2c0,0.5,0,0.9,0,0.9h0c0.5-1.7,1.9-3,3.7-3c0.3,0,0.6,0,0.6,0v2.2c0,0-0.3-0.1-0.6-0.1
			c-1.4,0-2.7,1-3.3,2.7c-0.2,0.7-0.3,1.4-0.3,2.1v4.8h-2.2L89.2,21.6L89.2,21.6z"/>
		<path fill="#579FD1" d="M97.7,21.6h2.2v6.9c0,1.6,0.3,2.9,2.2,2.9c2.4,0,3.8-2.1,3.8-4.4v-5.4h2.2v11.6H106v-1.5
			c0-0.5,0-0.9,0-0.9h0c-0.5,1.1-2,2.7-4.3,2.7c-2.6,0-4-1.4-4-4.5L97.7,21.6L97.7,21.6z"/>
		<path fill="#579FD1" d="M111.4,30.2c0,0,1.3,1.4,3.3,1.4c1,0,1.9-0.5,1.9-1.4c0-2.1-6-1.7-6-5.5c0-2.1,1.9-3.3,4.2-3.3
			c2.6,0,3.7,1.3,3.7,1.3l-0.9,1.7c0,0-1-1-2.9-1c-1,0-1.9,0.4-1.9,1.4c0,2.1,6,1.6,6,5.4c0,1.9-1.7,3.4-4.2,3.4
			c-2.9,0-4.4-1.7-4.4-1.7L111.4,30.2z"/>
		<path fill="#929497" d="M127.7,17.1h1.2v1.7h-1.2V17.1z M127.8,21.7h1v11.5h-1V21.7z"/>
		<path fill="#929497" d="M136.9,21.4c2.9,0,4,2.6,4,2.6h0c0,0-0.1-0.4-0.1-0.9v-6h1v16.1h-1v-1.4c0-0.5,0.1-0.9,0.1-0.9h0
			c0,0-1,2.6-4.2,2.6c-3.1,0-5-2.5-5-6C131.8,23.8,133.9,21.4,136.9,21.4z M136.8,32.5c2.1,0,4.1-1.5,4.1-5.1c0-2.6-1.3-5.1-4-5.1
			c-2.3,0-4.1,1.9-4.1,5.1C132.8,30.6,134.4,32.5,136.8,32.5z"/>
		<path fill="#929497" d="M150.3,21.4c3.1,0,4.7,2.5,4.7,5.2c0,0.3,0,0.6,0,0.6h-9.2c0,3.3,2.3,5.2,4.9,5.2c2.2,0,3.6-1.4,3.6-1.4
			l0.5,0.8c0,0-1.6,1.6-4.1,1.6c-3.2,0-5.9-2.3-5.9-6C144.7,23.6,147.4,21.4,150.3,21.4z M154,26.4c-0.1-2.8-1.8-4.1-3.7-4.1
			c-2.1,0-4.1,1.4-4.5,4.1H154z"/>
		<path fill="#929497" d="M158.2,21.7h1v2c0,0.5-0.1,0.9-0.1,0.9h0c0.4-1.1,2-3.2,4.9-3.2c3,0,3.8,1.8,3.8,4.5v7.3h-1v-6.9
			c0-2-0.3-3.9-2.8-3.9c-2.2,0-4.1,1.5-4.6,3.7c-0.1,0.5-0.2,1-0.2,1.6v5.6h-1L158.2,21.7L158.2,21.7z"/>
		<path fill="#929497" d="M171.7,22.6h-1.5v-0.9h1.5v-3.3h1v3.3h3v0.9h-3V29c0,3,1.8,3.4,2.7,3.4c0.3,0,0.5,0,0.5,0v0.9
			c0,0-0.2,0-0.6,0c-1.2,0-3.7-0.4-3.7-4.3V22.6z"/>
		<path fill="#929497" d="M178.7,17.1h1.1v1.7h-1.1V17.1z M178.8,21.7h1v11.5h-1V21.7z"/>
		<path fill="#929497" d="M184.2,22.6h-1.5v-0.9h1.5v-3.3h1v3.3h3v0.9h-3V29c0,3,1.8,3.4,2.7,3.4c0.3,0,0.5,0,0.5,0v0.9
			c0,0-0.2,0-0.6,0c-1.2,0-3.7-0.4-3.7-4.3V22.6z"/>
		<path fill="#929497" d="M189.7,36.6c0,0,0.6,0.6,1.4,0.6c1.1,0,1.8-1,2.3-2.1l0.8-1.9l-4.8-11.4h1l3.8,9.2
			c0.2,0.6,0.4,1.1,0.4,1.1h0c0,0,0.2-0.5,0.4-1.1l3.8-9.2h1l-5.9,14.2c-0.5,1.2-1.5,2.1-2.9,2.1c-1.1,0-1.9-0.6-1.9-0.6L189.7,36.6
			z"/>
	</g>
	<path fill="#579FD1" d="M34,33.8c-1.6,0-3.2,0-4.5,0l0,0c-2,0-2.7-0.3-4-1.9l0,0l-0.1-0.1c-0.8-1-1.5-1.1-2.4-0.1
		c-1.2,1.3-2.8,2.2-4.7,2.2c-3.5,0-6.3-2.8-6.3-6.3c0-3.5,2.8-6.3,6.3-6.3c1.9,0,3.6,0.8,4.7,2.2l0,0c0.9,1.1,1.6,0.9,2.5-0.2l0,0
		c1.4-1.7,2-1.9,4-1.9h4.3c1.4,0,1.1-1.1,0.7-2.1c-3-5.9-9.1-9.9-16.2-9.9C8.2,9.2,0,17.4,0,27.5c0,10.1,8.2,18.3,18.3,18.3
		c7,0,13-3.9,16.1-9.7C34.9,35.1,35.3,33.9,34,33.8z"/>
</g>
</svg>
