<?xml version="1.0" encoding="utf-8"?>
<!-- Generator: Adobe Illustrator 22.0.1, SVG Export Plug-In . SVG Version: 6.00 Build 0)  -->
<svg version="1.2" baseProfile="tiny" id="Logo" xmlns="http://www.w3.org/2000/svg" xmlns:xlink="http://www.w3.org/1999/xlink"
	 x="0px" y="0px" viewBox="0 0 80 118" xml:space="preserve">
<g>
	<line fill="none" stroke="#FFFFFF" stroke-width="0.5" stroke-miterlimit="10" x1="79.1" y1="61.7" x2="0.9" y2="61.7"/>
	<g>
		<g>
			<path fill="#FFFFFF" d="M11.1,76c3.7,0,5.6,2.2,5.6,2.2l-1.4,2c0,0-1.6-1.7-4.1-1.7c-3,0-5.2,2.2-5.2,5.3c0,3,2.2,5.4,5.3,5.4
				c2.8,0,4.6-2,4.6-2l1.1,2.1c0,0-2.1,2.4-5.9,2.4c-4.7,0-8-3.3-8-7.8C3.1,79.4,6.4,76,11.1,76z"/>
			<path fill="#FFFFFF" d="M20.2,70.5h2.9v2.9h-2.9V70.5z M20.3,76.3h2.9v14.9h-2.9V76.3z"/>
			<path fill="#FFFFFF" d="M27.6,76.3h2.8v2.6c0,0.6-0.1,1.1-0.1,1.1h0.1c0.7-2.2,2.4-3.9,4.7-3.9c0.4,0,0.7,0.1,0.7,0.1V79
				c0,0-0.4-0.1-0.8-0.1c-1.8,0-3.5,1.3-4.2,3.5c-0.3,0.9-0.4,1.8-0.4,2.7v6.1h-2.9L27.6,76.3L27.6,76.3z"/>
			<path fill="#FFFFFF" d="M38.6,76.3h2.8v2.6c0,0.6-0.1,1.1-0.1,1.1h0.1c0.7-2.2,2.4-3.9,4.7-3.9c0.4,0,0.7,0.1,0.7,0.1V79
				c0,0-0.4-0.1-0.8-0.1c-1.8,0-3.5,1.3-4.2,3.5c-0.3,0.9-0.4,1.8-0.4,2.7v6.1h-2.9L38.6,76.3L38.6,76.3z"/>
			<path fill="#FFFFFF" d="M49.4,76.3h2.9v8.9c0,2.1,0.4,3.7,2.8,3.7c3,0,4.8-2.7,4.8-5.6v-7h2.9v14.9H60v-2c0-0.6,0.1-1.1,0.1-1.1
				H60c-0.6,1.5-2.6,3.4-5.5,3.4c-3.4,0-5.1-1.8-5.1-5.7L49.4,76.3L49.4,76.3z"/>
			<path fill="#FFFFFF" d="M66.9,87.4c0,0,1.7,1.7,4.3,1.7c1.2,0,2.5-0.6,2.5-1.9c0-2.7-7.6-2.2-7.6-7c0-2.7,2.4-4.2,5.4-4.2
				c3.3,0,4.8,1.6,4.8,1.6l-1.1,2.1c0,0-1.3-1.3-3.7-1.3c-1.2,0-2.4,0.5-2.4,1.8c0,2.7,7.6,2.1,7.6,7c0,2.5-2.1,4.3-5.4,4.3
				c-3.6,0-5.6-2.2-5.6-2.2L66.9,87.4z"/>
		</g>
		<g>
			<path fill="#FFFFFF" d="M4.2,96.7h1.2v1.7H4.2V96.7z M4.3,101.3h1v11.5h-1V101.3z"/>
			<path fill="#FFFFFF" d="M13.5,101c2.9,0,4,2.6,4,2.6h0c0,0-0.1-0.4-0.1-0.9v-6h1v16.1h-1v-1.4c0-0.5,0.1-0.9,0.1-0.9h0
				c0,0-1,2.6-4.2,2.6c-3.1,0-5-2.5-5-6C8.4,103.4,10.5,101,13.5,101z M13.4,112.1c2.1,0,4.1-1.5,4.1-5.1c0-2.6-1.3-5.1-4-5.1
				c-2.3,0-4.1,1.9-4.1,5.1C9.4,110.2,11,112.1,13.4,112.1z"/>
			<path fill="#FFFFFF" d="M26.9,101c3.1,0,4.7,2.5,4.7,5.2c0,0.3,0,0.6,0,0.6h-9.2c0,3.3,2.3,5.2,4.9,5.2c2.2,0,3.6-1.4,3.6-1.4
				l0.5,0.8c0,0-1.6,1.6-4.1,1.6c-3.2,0-5.9-2.3-5.9-6C21.3,103.2,23.9,101,26.9,101z M30.6,106c-0.1-2.8-1.8-4.1-3.7-4.1
				c-2.1,0-4.1,1.4-4.5,4.1H30.6z"/>
			<path fill="#FFFFFF" d="M34.8,101.3h1v2c0,0.5-0.1,0.9-0.1,0.9h0c0.4-1.1,2-3.2,4.9-3.2c3,0,3.8,1.8,3.8,4.5v7.3h-1v-6.9
				c0-2-0.3-3.9-2.8-3.9c-2.2,0-4.1,1.5-4.6,3.7c-0.1,0.5-0.2,1-0.2,1.6v5.6h-1L34.8,101.3L34.8,101.3z"/>
			<path fill="#FFFFFF" d="M48.3,102.2h-1.5v-0.9h1.5v-3.3h1v3.3h3v0.9h-3v6.3c0,3,1.8,3.4,2.7,3.4c0.3,0,0.5,0,0.5,0v0.9
				c0,0-0.2,0-0.6,0c-1.2,0-3.7-0.4-3.7-4.3V102.2z"/>
			<path fill="#FFFFFF" d="M55.3,96.7h1.1v1.7h-1.1V96.7z M55.4,101.3h1v11.5h-1V101.3z"/>
			<path fill="#FFFFFF" d="M60.8,102.2h-1.5v-0.9h1.5v-3.3h1v3.3h3v0.9h-3v6.3c0,3,1.8,3.4,2.7,3.4c0.3,0,0.5,0,0.5,0v0.9
				c0,0-0.2,0-0.6,0c-1.2,0-3.7-0.4-3.7-4.3V102.2z"/>
			<path fill="#FFFFFF" d="M66.3,116.1c0,0,0.6,0.6,1.4,0.6c1.1,0,1.8-1,2.3-2.1l0.8-1.9l-4.8-11.4h1l3.8,9.2
				c0.2,0.6,0.4,1.1,0.4,1.1h0c0,0,0.2-0.5,0.4-1.1l3.8-9.2h1l-5.9,14.2c-0.5,1.2-1.5,2.1-2.9,2.1c-1.1,0-1.9-0.6-1.9-0.6
				L66.3,116.1z"/>
		</g>
	</g>
	<path fill="#FFFFFF" d="M61.4,32.2c-2,0-4.1,0-5.8,0l0,0c-2.6,0-3.5-0.4-5.2-2.5l0,0l-0.1-0.2c-1.1-1.3-2-1.5-3.1-0.1
		c-1.5,1.7-3.7,2.8-6.1,2.8c-4.5,0-8.2-3.7-8.2-8.2c0-4.5,3.6-8.2,8.2-8.2c2.5,0,4.6,1.1,6.1,2.8l0,0c1.2,1.4,2.1,1.2,3.2-0.3l0,0
		c1.8-2.2,2.6-2.5,5.2-2.5h5.6c1.8,0,1.4-1.5,0.8-2.7c-3.9-7.6-11.8-12.8-21-12.8C28,0.4,17.4,11,17.4,24
		c0,13.1,10.6,23.6,23.6,23.6c9,0,16.9-5.1,20.9-12.6C62.6,33.9,63.1,32.3,61.4,32.2z"/>
</g>
</svg>
